<svg width="162" height="30" viewBox="0 0 162 30" fill="none" xmlns="http://www.w3.org/2000/svg">
<path d="M162 1.04346H155.627V29H162V1.04346Z" fill="white"/>
<path d="M136.553 20.7391V20.7826V20.7391L128.73 1H121.961V28.9565H128.334V21.3913L128.027 16.5652L133.301 29.0435H136.245H136.553H139.849L145.079 16.5652L144.816 21.3913V28.9565H151.188V1H144.42L136.553 20.7391Z" fill="white"/>
<path d="M106.095 0C103.283 0 99.3711 0.782609 96.6022 4.47826C95.4156 6.04348 94.8003 7.95652 94.8003 10.2174V19.8696C94.8003 23 96.2067 25.913 98.58 27.6522C100.821 29.2174 103.458 30.0435 106.095 30.0435C108.732 30.0435 111.413 29.1739 113.655 27.6522C116.028 25.913 117.435 23 117.435 19.8696V10.1739C117.479 2.69565 110.666 0 106.095 0ZM111.018 18.8261C111.018 21.8261 108.996 23.913 106.139 23.913C103.283 23.913 101.261 21.8261 101.261 18.8261V11.1739C101.261 8.17391 103.239 6.08696 106.095 6.08696C108.952 6.08696 111.018 8.21739 111.018 11.1739V18.8261Z" fill="white"/>
<path d="M71.9463 17.7826C74.4954 16.2174 76.0776 12.9565 76.0776 10C76.0776 5.30435 72.21 1 67.4194 1H53.3115V29.0435H59.6842V19.0435H65.2659L65.3098 19.1304L69.6169 29.0435H76.605L71.7265 17.9565L71.9463 17.7826ZM67.4194 12.7826H59.6842V7.30435H67.4194C68.65 7.30435 69.7048 8.78261 69.7048 10C69.7048 11.2609 68.694 12.7826 67.4194 12.7826Z" fill="white"/>
<path d="M37.4894 0C34.6766 0 30.7651 0.782609 27.9962 4.47826C26.8096 6.04348 26.1943 7.95652 26.1943 10.2174V19.8696C26.1943 23 27.6007 25.913 29.974 27.6522C32.2154 29.2174 34.8524 30.0435 37.5334 30.0435C40.1704 30.0435 42.8514 29.1739 45.0928 27.6522C47.4661 25.913 48.8725 23 48.8725 19.8696V10.1739C48.8725 2.69565 42.0603 0 37.4894 0ZM42.3679 18.8261C42.3679 21.8261 40.3462 23.913 37.4894 23.913C34.6327 23.913 32.611 21.8261 32.611 18.8261V11.1739C32.611 8.17391 34.5887 6.08696 37.4455 6.08696C40.3022 6.08696 42.3679 8.21739 42.3679 11.1739V18.8261Z" fill="white"/>
<path d="M19.8654 14.8695C19.8654 14.8695 22.5464 12.913 22.5464 9.5217C22.5464 4.73909 18.5909 0.82605 13.7564 0.82605H0V29.1739H14.064C18.8985 29.1739 22.854 25.3043 22.854 20.5217C22.8101 17 19.8654 14.8695 19.8654 14.8695ZM6.46066 7.26083H13.7564C14.987 7.26083 16.0418 8.30431 16.0418 9.5217C16.0418 10.7826 15.0309 11.826 13.7564 11.826H6.46066V7.26083ZM14.064 22.7826H6.46066V18.2174H13.9761C15.2946 18.2174 16.3494 19.2608 16.3494 20.5217C16.3494 21.7391 15.2946 22.7826 14.064 22.7826Z" fill="white"/>
<path d="M83.9886 20.6087C83.9886 22.8261 83.3733 23.6956 81.1318 23.6956C80.2968 23.6956 79.5936 23.6522 79.0222 23.6087V29.3478C79.9891 29.5217 81 29.6087 81.7911 29.6087C87.5485 29.6087 90.3174 27 90.3174 21.3478V1.04346H83.9446V20.6087H83.9886Z" fill="white"/>
</svg>
