<svg width="30" height="30" viewBox="0 0 30 30" fill="none" xmlns="http://www.w3.org/2000/svg">
<path d="M0 0.687988C7.90441 0.687988 14.3116 7.09591 14.3116 14.9996C14.3116 22.904 7.90372 29.3113 0 29.3113" stroke="white" stroke-miterlimit="10"/>
<path d="M30.0001 29.3113C22.0957 29.3113 15.6885 22.9034 15.6885 14.9996C15.6885 7.09522 22.0964 0.687988 30.0001 0.687988" stroke="white" stroke-miterlimit="10"/>
<path d="M0.688477 30.0001C0.688477 22.0957 7.0964 15.6885 15.0001 15.6885C22.9045 15.6885 29.3118 22.0964 29.3118 30.0001" stroke="white" stroke-miterlimit="10"/>
<path d="M29.3118 0C29.3118 7.90441 22.9038 14.3116 15.0001 14.3116C7.09571 14.3116 0.688477 7.90441 0.688477 0" stroke="white" stroke-miterlimit="10"/>
<path d="M12.3294 14.0755C11.873 10.3322 8.68315 7.43213 4.81665 7.43213H12.1614" stroke="white" stroke-miterlimit="10"/>
<path d="M12.1614 22.5684H4.81665C8.67421 22.5684 11.8572 19.6828 12.3259 15.9526" stroke="white" stroke-miterlimit="10"/>
<path d="M17.6709 15.9282C18.128 19.6708 21.3171 22.5695 25.1836 22.5695H17.8451" stroke="white" stroke-miterlimit="10"/>
<path d="M17.8408 7.43115H25.1835C21.3225 7.43115 18.1368 10.3216 17.6729 14.0573" stroke="white" stroke-miterlimit="10"/>
</svg>
